<svg xmlns="http://www.w3.org/2000/svg" height="48" width="48"><path d="M14 44.45q-1.55 0-2.675-1.125Q10.2 42.2 10.2 40.6q0-1.55 1.125-2.675Q12.45 36.8 14.05 36.8q1.55 0 2.675 1.125 1.125 1.125 1.125 2.725 0 1.55-1.125 2.675Q15.6 44.45 14 44.45Zm20.45 0q-1.6 0-2.7-1.125t-1.1-2.725q0-1.55 1.125-2.675Q32.9 36.8 34.45 36.8q1.6 0 2.7 1.125t1.1 2.725q0 1.55-1.1 2.675-1.1 1.125-2.7 1.125ZM11.9 11.05l5.25 10.8H31.6l5.9-10.8ZM10.05 7.3H40.1q1.3 0 1.975 1.2t-.025 2.4l-6.9 12.4q-.55 1-1.525 1.65-.975.65-2.125.65H16.2l-2.5 4.65h24.75v3.7h-24.9q-2.35 0-3.35-1.575t.05-3.525l3.1-5.75-7.55-16H1.75V3.35H8.2Zm7.1 14.55H31.6Z"/></svg>